inDegrees=no
num_controls=7
num_derivatives=13
num_iterations=122
num_multipliers=7
num_parameters=0
num_slacks=7
num_states=26
objective=0.509421
objective_accelerations=0.004162
objective_balance=0.002954
objective_effort=0.016010
objective_height=0.479068
objective_ligament=0.007227
solver_duration=1393.017729
status=Solve_Succeeded
success=true
DataType=double
version=3
OpenSimVersion=4.5
endheader
time	/jointset/ground_pelvis/pelvis_tilt/value	/jointset/ground_pelvis/pelvis_tx/value	/jointset/ground_pelvis/pelvis_ty/value	/jointset/hip_r/hip_flexion_r/value	/jointset/hip_r/hip_adduction_r/value	/jointset/hip_r/hip_rotation_r/value	/jointset/back/lumbar_extension/value	/jointset/patellofemoral_r/patellar_flexion_r/value	/jointset/knee_r/knee_flexion_r/value	/jointset/knee_r/knee_adduction_r/value	/jointset/knee_r/knee_rotation_r/value	/jointset/ankle_r/ankle_angle_r/value	/jointset/subtalar_r/subtalar_angle_r/value	/jointset/ground_pelvis/pelvis_tilt/speed	/jointset/ground_pelvis/pelvis_tx/speed	/jointset/ground_pelvis/pelvis_ty/speed	/jointset/hip_r/hip_flexion_r/speed	/jointset/hip_r/hip_adduction_r/speed	/jointset/hip_r/hip_rotation_r/speed	/jointset/back/lumbar_extension/speed	/jointset/patellofemoral_r/patellar_flexion_r/speed	/jointset/knee_r/knee_flexion_r/speed	/jointset/knee_r/knee_adduction_r/speed	/jointset/knee_r/knee_rotation_r/speed	/jointset/ankle_r/ankle_angle_r/speed	/jointset/subtalar_r/subtalar_angle_r/speed	/forceset/tau_hip_flexion_r	/forceset/tau_hip_adduction_r	/forceset/tau_hip_rotation_r	/forceset/tau_knee_flexion_r	/forceset/tau_ankle_angle_r	/forceset/tau_subtalar_angle_r	/forceset/tau_lumbar_extension	lambda_cid13_p0	lambda_cid14_p0	lambda_cid14_p1	lambda_cid14_p2	lambda_cid14_p3	lambda_cid14_p4	lambda_cid14_p5	/jointset/ground_pelvis/pelvis_tilt/accel	/jointset/ground_pelvis/pelvis_tx/accel	/jointset/ground_pelvis/pelvis_ty/accel	/jointset/hip_r/hip_flexion_r/accel	/jointset/hip_r/hip_adduction_r/accel	/jointset/hip_r/hip_rotation_r/accel	/jointset/back/lumbar_extension/accel	/jointset/patellofemoral_r/patellar_flexion_r/accel	/jointset/knee_r/knee_flexion_r/accel	/jointset/knee_r/knee_adduction_r/accel	/jointset/knee_r/knee_rotation_r/accel	/jointset/ankle_r/ankle_angle_r/accel	/jointset/subtalar_r/subtalar_angle_r/accel	gamma_cid13_p0	gamma_cid14_p0	gamma_cid14_p1	gamma_cid14_p2	gamma_cid14_p3	gamma_cid14_p4	gamma_cid14_p5
1.5	0.01620939327482429	0.1386602743895382	0.9449038335175443	0.1361587328978121	-0.2067820143621817	-0.2570427499905206	-0.1298817213556138	0.1256283390836489	0.1256283390836962	0.1082046472498514	0.1745002086401976	0.1223814804430711	0.04758489919487893	-0.1403864041038376	-0.04838469811985497	0.005376888505421664	0.0168137543165163	-0.02555927638338934	-0.05924463412906539	0.4191931099324621	-0.3290340796026299	-0.3290340796025915	0.1439425077230557	0.0002540985470575938	-0.2484965535582114	-0.09744170190260022	0.0708269184107219	-0.04900227078029069	-0.009859373685773628	-0.1765024594913876	0.04165496592413662	-0.0394060853845451	0.01544014498493179	-40.48232955793065	-31.79313989589074	-15.75491871002298	-4.939301975086047	9.414621939541213	-692.7525301381577	59.10743763210194	-0.006846141049870441	-0.1113422577925872	-0.03259170582600318	0.06347681955017102	-0.09046203478784511	-0.05156569500826423	0.2010260511482743	-0.08449630251418377	-0.08449630251418307	0.2150677988625693	-0.01111578640491707	-0.2086861336107104	-0.1310704735810337	2.579461706361482e-08	1.862698326121006e-08	-2.198989485619495e-07	1.455396079597169e-07	9.600726283674002e-09	2.730063466986312e-08	-2.392563157038061e-07
1.51	0.01480547123358556	0.138170915265581	0.9449559560671243	0.1363297369829291	-0.2070424522941961	-0.2576380787440187	-0.1256802911773092	0.1223340727855466	0.1223340727855783	0.1096554220310164	0.1745026503559544	0.1198862147043247	0.04660361334336409	-0.140374825990012	-0.04948283119460207	0.005046111785412756	0.01738254738709353	-0.02652838156434323	-0.05981526319415877	0.4210418285680122	-0.329773291226983	-0.3297732912269398	0.1461998051823718	0.000233328759210264	-0.2505259416937048	-0.09880543387166621	0.07212696883469691	-0.05092521981932197	-0.01002384344581879	-0.177571449258304	0.04545696559245896	-0.04050839306741769	0.01394894240293227	-40.39361155482485	-30.62750584372885	-16.01369818682829	-4.916159848697602	9.030080351133725	-692.5475849723315	59.30714494027873	0.008637550152035741	-0.1084025171227207	-0.03354109378712397	0.05290463546130622	-0.1001450517979254	-0.0589065259781009	0.1691301956906864	-0.06175580380065841	-0.0617558037999317	0.2291484753410724	0.00233315448366869	-0.1954617365936834	-0.1375381240346513	2.701913104794036e-08	1.969181797942649e-08	-2.280134645305321e-07	1.493460139803724e-07	9.843290818248388e-09	2.909897285433446e-08	-2.454859124942514e-07
1.52	0.01340236052599452	0.1376707040739148	0.9450047267617646	0.1365062938156809	-0.2073125833364302	-0.2582389327909111	-0.1214619067274629	0.1190337899289223	0.1190337899289359	0.1111283873379501	0.1745048625197191	0.1173715757676082	0.0456089874590655	-0.1402241373740546	-0.05055511166162491	0.004706517517463362	0.0179243038436646	-0.02749789842724704	-0.0603496928079812	0.4225839642408549	-0.3302373913075271	-0.3302373913074791	0.1483806128766866	0.0002081881496961287	-0.2523711931521995	-0.1001097084593434	0.07342701925866933	-0.05284816885835538	-0.0101883132058914	-0.1786404390252189	0.04925896526078045	-0.04161070075029258	0.01245773982093118	-40.30324800579397	-29.46309874163429	-16.26949869111597	-4.897140779409104	8.641424962221921	-692.3721245506681	59.53474129310643	0.02097595937649101	-0.106171736247738	-0.03435521541410035	0.05806949674894227	-0.09054437117782831	-0.04432580475406595	0.1397094586068015	-0.02947399375237487	-0.02947399375237458	0.1997698458623086	-0.01198995073828737	-0.1718587982109622	-0.1191789973032837	2.819939548776682e-08	2.074075442958491e-08	-2.355377431351143e-07	1.527705847117933e-07	1.004617775578742e-08	3.082679919649599e-08	-2.510283932207804e-07
1.53	0.01200146742767421	0.1371599073514099	0.9450500632415606	0.1366880893390135	-0.2075924065334394	-0.2588449859721882	-0.1172296653861062	0.1157302117259281	0.1157302117259418	0.1126227777487737	0.1745068288115937	0.1148394005233771	0.04460162077849431	-0.1399309370486363	-0.05159928019464191	0.004359566943889368	0.01843011685241888	-0.02846627501983757	-0.06085327330153113	0.4238109919593434	-0.3304310661522556	-0.3304310661522241	0.1504833066052274	0.0001831428372532781	-0.2540315345289271	-0.1013528066254717	0.07479261200249422	-0.05489891952221814	-0.01037778629082027	-0.1798615935377763	0.05327222481246864	-0.04277095295416555	0.01091872105008413	-40.21129977780497	-28.23281558404602	-16.53857391723444	-4.876412141490464	8.219502152533499	-692.1837898160788	59.76102900191417	0.03702504334579979	-0.1027944565321676	-0.03504003008490111	0.04613618998012423	-0.09991500904073669	-0.05219540657919472	0.1062026177957116	-0.007242746909942305	-0.007242746912396277	0.2133776446431694	0.001978667220527649	-0.1582676190705364	-0.1252723230782698	2.9332644786563e-08	2.177279896993171e-08	-2.424348945404459e-07	1.557894554484024e-07	1.020690724647638e-08	3.247970670620337e-08	-2.558408131293985e-07
